<svg width="18" height="22" viewBox="0 0 18 22" fill="none" xmlns="http://www.w3.org/2000/svg">
<path d="M17 9C17 12.404 14.874 15.311 11.878 16.467H6.122C3.126 15.311 1 12.404 1 9C1 4.5815 4.5815 1 9 1C13.4185 1 17 4.5815 17 9Z" stroke="#A2A2A2" stroke-width="1.33333" stroke-linecap="round" stroke-linejoin="round"/>
<path d="M11.878 16.467L11.538 20.542C11.5275 20.6669 11.4705 20.7832 11.3782 20.868C11.286 20.9528 11.1653 20.9999 11.04 21H6.96C6.83462 20.9999 6.71385 20.9528 6.62161 20.8678C6.52937 20.7829 6.47241 20.6664 6.462 20.5415L6.122 16.4665M6 7.5V10.5L9 9L12 10.5V7.5" stroke="#A2A2A2" stroke-width="1.33333" stroke-linecap="round" stroke-linejoin="round"/>
</svg>
