<svg width="22" height="23" viewBox="0 0 22 23" fill="none" xmlns="http://www.w3.org/2000/svg">
<path d="M11 22.5H9.5V19.5C9.5 19.3011 9.42098 19.1103 9.28033 18.9697C9.13968 18.829 8.94891 18.75 8.75 18.75H7.25V22.5H5.75V17.25H8.75C9.34655 17.2506 9.9185 17.4878 10.3403 17.9097C10.7622 18.3315 10.9994 18.9034 11 19.5V22.5ZM4.625 16.5C3.92905 16.4992 3.26183 16.2224 2.76972 15.7303C2.27761 15.2382 2.00079 14.571 2 13.875V12.75H0.5V11.25H3.5V13.875C3.5 14.1734 3.61853 14.4595 3.8295 14.6705C4.04048 14.8815 4.32663 15 4.625 15C4.92337 15 5.20952 14.8815 5.4205 14.6705C5.63147 14.4595 5.75 14.1734 5.75 13.875V11.25H8.75V12.75H7.25V13.875C7.24921 14.571 6.97239 15.2382 6.48028 15.7303C5.98817 16.2224 5.32095 16.4992 4.625 16.5ZM19.25 7.5H15.0155C14.5655 7.49891 14.1256 7.63322 13.7529 7.88549C13.3803 8.13775 13.0922 8.4963 12.926 8.9145L11.8445 11.6183L9.13925 15.0008L10.3108 15.9383L13.0858 12.4688L14.3195 9.47175C14.3747 9.33228 14.4706 9.21267 14.5947 9.12852C14.7189 9.04437 14.8655 8.99959 15.0155 9H19.25C19.4489 9 19.6397 9.07902 19.7803 9.21967C19.921 9.36032 20 9.55109 20 9.75V15H17.75V22.5H19.25V16.5H20C20.3978 16.5 20.7794 16.342 21.0607 16.0607C21.342 15.7794 21.5 15.3978 21.5 15V9.75C21.4994 9.15345 21.2622 8.5815 20.8403 8.15967C20.4185 7.73784 19.8466 7.5006 19.25 7.5ZM17 6.75C16.4067 6.75 15.8266 6.57405 15.3333 6.24441C14.8399 5.91477 14.4554 5.44623 14.2284 4.89805C14.0013 4.34987 13.9419 3.74667 14.0576 3.16473C14.1734 2.58279 14.4591 2.04824 14.8787 1.62868C15.2982 1.20912 15.8328 0.923401 16.4147 0.807646C16.9967 0.69189 17.5999 0.7513 18.1481 0.978363C18.6962 1.20543 19.1648 1.58994 19.4944 2.08329C19.8241 2.57664 20 3.15666 20 3.75C19.999 4.54535 19.6826 5.30783 19.1202 5.87023C18.5578 6.43262 17.7953 6.74901 17 6.75ZM17 2.25C16.7033 2.25 16.4133 2.33797 16.1666 2.5028C15.92 2.66762 15.7277 2.90189 15.6142 3.17598C15.5006 3.45007 15.4709 3.75167 15.5288 4.04264C15.5867 4.33361 15.7296 4.60088 15.9393 4.81066C16.1491 5.02044 16.4164 5.1633 16.7074 5.22118C16.9983 5.27906 17.2999 5.24935 17.574 5.13582C17.8481 5.02229 18.0824 4.83003 18.2472 4.58336C18.412 4.33668 18.5 4.04667 18.5 3.75C18.5 3.35218 18.342 2.97065 18.0607 2.68934C17.7794 2.40804 17.3978 2.25 17 2.25Z" fill="#A2A2A2"/>
</svg>
